# xmcd CD database file
#
# Track frame offsets:
#	150
#	17963
#	31955
#	47762
#	60865
#	73228
#	87434
#	100046
#	116970
#	133630
#	145418
#	162217
#	179781
#	196776
#	210099
#	233466
#	248372
#	261507
#	274813
#	285078
#
# Disc length: 4034 seconds
#
# Revision: 0
# Processed by: cddbd v1.5.2PL0 Copyright (c) Steve Scherf et al.
# Submitted via: CDex 1.51
#
DISCID=180fc014
DTITLE=Various Artist - Kantritund 2
DYEAR=2007
DGENRE=Country
TTITLE0=kukerpillid - kukermiks
TTITLE1=meie mees - oh sa poiss
TTITLE2=folkmill - käib salapidi öö
TTITLE3=rock hotell - annan alla
TTITLE4=vlü - eduard, juuljus ja aadu
TTITLE5=kavaler - rosalinda
TTITLE6=karl madis - meenutus
TTITLE7=beergrass - kogu maailm lai
TTITLE8=puhas vuuk - vana kuu
TTITLE9=leila miller ja kontor  - kuulan samme
TTITLE10=ummamuudu - ivvo
TTITLE11=justament - tuul, kas mäletad
TTITLE12=los desperados - get on your feels
TTITLE13=vanaviisi - ütle mul, mis ma sest saan
TTITLE14=Kapell - jahvakivi
TTITLE15=A fond - eldorado
TTITLE16=rein tuus ja seilman - seitse ööd ja seitse päeva
TTITLE17=katalog - stop
TTITLE18=tony trischka - Greenwood
TTITLE19=meie mees - naiste valss
EXTD=YEAR: 2007
EXTT0=
EXTT1=
EXTT2=
EXTT3=
EXTT4=
EXTT5=
EXTT6=
EXTT7=
EXTT8=
EXTT9=
EXTT10=
EXTT11=
EXTT12=
EXTT13=
EXTT14=
EXTT15=
EXTT16=
EXTT17=
EXTT18=
EXTT19=
PLAYORDER=
